# xmcd
#
# Track frame offsets:
#	150
#	21773
#	40259
#	61938
#	83375
#	102559
#	123376
#	145060
#	163545
#	185309
#	206897
#	226045
#
# Disc length: 3291 seconds
#
# Revision: 1
# Processed by: cddbd v1.5.2PL0 Copyright (c) Steve Scherf et al.
# Submitted via: audiograbber 1.83.01
#
DISCID=950cd90c
DTITLE=Sade - Sade
DYEAR=1900
DGENRE=
TTITLE0=Sade - By Your Side w/vocals
TTITLE1=Sade - Paradis w/vocals
TTITLE2=Sade - Never As Good As The First Time w/vocals
TTITLE3=Sade - Smooth Operator w/vocals
TTITLE4=Sade - Sweetest Taboo w/vocals
TTITLE5=Sade - Love is Stronger Than Pride w/vocals
TTITLE6=Sade - By Your Side
TTITLE7=Sade - Paradise
TTITLE8=Sade - Never As Good As The First Time
TTITLE9=Sade - Smooth Operator
TTITLE10=Sade - Sweetest Taboo
TTITLE11=Sade - Love Is Stronger Than Pride
EXTD=
EXTT0=
EXTT1=
EXTT2=
EXTT3=
EXTT4=
EXTT5=
EXTT6=
EXTT7=
EXTT8=
EXTT9=
EXTT10=
EXTT11=
PLAYORDER=
